<?xml version="1.0" encoding="utf-8"?>
<!-- Generator: Adobe Illustrator 16.0.4, SVG Export Plug-In . SVG Version: 6.00 Build 0)  -->
<!DOCTYPE svg PUBLIC "-//W3C//DTD SVG 1.1//EN" "http://www.w3.org/Graphics/SVG/1.1/DTD/svg11.dtd">
<svg version="1.1" id="Layer_1" xmlns="http://www.w3.org/2000/svg" xmlns:xlink="http://www.w3.org/1999/xlink" x="0px" y="0px"
	 width="192px" height="192px" viewBox="0 0 192 192" enable-background="new 0 0 192 192" xml:space="preserve">
<g>
	<g>
		<circle fill="#B3B3B3" cx="96" cy="97.062" r="90"/>
		<circle fill="#E6E6E6" cx="96" cy="94.938" r="90"/>
		<linearGradient id="SVGID_1_" gradientUnits="userSpaceOnUse" x1="172.8301" y1="139.1436" x2="88.3756" y2="86.3705">
			<stop  offset="0" style="stop-color:#FFFFFF;stop-opacity:0"/>
			<stop  offset="0.1783" style="stop-color:#C9C9C9;stop-opacity:0.1783"/>
			<stop  offset="0.4799" style="stop-color:#747474;stop-opacity:0.4799"/>
			<stop  offset="0.7268" style="stop-color:#353535;stop-opacity:0.7268"/>
			<stop  offset="0.9063" style="stop-color:#0F0F0F;stop-opacity:0.9063"/>
			<stop  offset="1" style="stop-color:#000000"/>
		</linearGradient>
		<path opacity="0.2" fill="url(#SVGID_1_)" d="M110.815,50.457l73.482,49.551c-3.785,28.369-16.144,56.703-41.347,70.402
			l-56.192-54.785c0,0,7.143-10.059,11.483-20.688c4.341-10.631,15.121-21.861,15.598-26.91
			C114.487,61.172,110.815,50.457,110.815,50.457z"/>
		<linearGradient id="SVGID_2_" gradientUnits="userSpaceOnUse" x1="134.1143" y1="177.7715" x2="86.3665" y2="140.4669">
			<stop  offset="0" style="stop-color:#FFFFFF;stop-opacity:0"/>
			<stop  offset="0.1884" style="stop-color:#C6C6C6;stop-opacity:0.1884"/>
			<stop  offset="0.4856" style="stop-color:#727272;stop-opacity:0.4856"/>
			<stop  offset="0.7293" style="stop-color:#353535;stop-opacity:0.7293"/>
			<stop  offset="0.9069" style="stop-color:#0E0E0E;stop-opacity:0.9069"/>
			<stop  offset="1" style="stop-color:#000000"/>
		</linearGradient>
		<path opacity="0.2" fill="url(#SVGID_2_)" d="M98.82,129.887l40.499,41.166c0,1.096-18.403,10.238-26.696,10.238l-26.699-40.256
			L98.82,129.887z"/>
		<g>
			<g>
				<path fill="#B3B3B3" d="M86.759,115.625l-0.286-3.695c-0.853-7.537,1.708-16.068,8.815-24.6c6.4-7.535,9.955-13.082,9.955-19.48
					c0-7.25-4.55-12.086-13.51-12.227c-5.116,0-10.805,1.703-14.359,4.406l-3.412-8.957c4.834-3.414,12.797-5.688,20.332-5.688
					c16.353,0,23.744,10.096,23.744,20.9c0,9.67-5.401,16.637-12.228,24.74c-6.256,7.395-8.529,13.793-8.104,21.045l0.285,3.555
					H86.759z M83.771,135.674c0-5.26,3.555-8.957,8.389-8.957c5.121,0,8.391,3.697,8.391,8.957c0,4.977-3.27,8.816-8.532,8.816
					C87.185,144.49,83.771,140.65,83.771,135.674z"/>
			</g>
		</g>
	</g>
	<g opacity="0.2">
		<path d="M38.151,150.354l4.068-3.926l0.374,0.389l-4.068,3.926L38.151,150.354z"/>
		<path d="M40.33,146.092c0.083-0.201,0.113-0.402,0.091-0.604s-0.093-0.404-0.204-0.607c-0.113-0.203-0.254-0.402-0.427-0.594
			c-0.098-0.113-0.219-0.219-0.367-0.32c-0.145-0.104-0.304-0.182-0.473-0.234c-0.169-0.051-0.341-0.064-0.516-0.045
			c-0.176,0.021-0.341,0.1-0.493,0.236c-0.12,0.104-0.2,0.223-0.239,0.352c-0.039,0.131-0.052,0.264-0.037,0.402
			c0.017,0.137,0.052,0.275,0.104,0.41c0.052,0.137,0.112,0.266,0.176,0.385l0.601,1.148c0.076,0.148,0.143,0.305,0.2,0.463
			c0.056,0.158,0.082,0.318,0.078,0.475c-0.002,0.156-0.037,0.311-0.104,0.467c-0.067,0.154-0.186,0.305-0.351,0.451
			c-0.103,0.092-0.241,0.18-0.414,0.262c-0.174,0.082-0.37,0.123-0.588,0.123c-0.219-0.002-0.456-0.059-0.708-0.172
			c-0.252-0.115-0.512-0.322-0.771-0.617c-0.186-0.211-0.337-0.436-0.448-0.676c-0.111-0.236-0.175-0.479-0.189-0.717
			c-0.017-0.24,0.021-0.475,0.111-0.705c0.089-0.23,0.241-0.441,0.458-0.635l0.357,0.404c-0.155,0.15-0.265,0.312-0.328,0.486
			c-0.062,0.17-0.087,0.344-0.077,0.521c0.013,0.176,0.059,0.35,0.137,0.523s0.186,0.336,0.317,0.484
			c0.122,0.141,0.256,0.26,0.398,0.361c0.143,0.104,0.291,0.174,0.439,0.215c0.152,0.037,0.308,0.041,0.466,0.006
			c0.159-0.037,0.318-0.123,0.477-0.262c0.1-0.088,0.17-0.182,0.213-0.281c0.046-0.096,0.066-0.197,0.064-0.303
			c0-0.105-0.019-0.211-0.054-0.314c-0.037-0.105-0.085-0.211-0.143-0.314l-0.656-1.258c-0.093-0.186-0.169-0.369-0.229-0.553
			c-0.06-0.184-0.09-0.363-0.097-0.539c-0.004-0.178,0.031-0.348,0.104-0.514s0.193-0.324,0.369-0.479
			c0.048-0.041,0.115-0.094,0.202-0.152c0.089-0.061,0.194-0.109,0.315-0.152c0.122-0.041,0.258-0.066,0.413-0.078
			c0.15-0.012,0.317,0.012,0.497,0.066c0.18,0.057,0.369,0.154,0.573,0.291c0.202,0.139,0.413,0.332,0.634,0.582
			s0.396,0.506,0.528,0.77c0.13,0.264,0.204,0.523,0.217,0.779c0.014,0.256-0.035,0.506-0.151,0.752
			c-0.113,0.242-0.305,0.477-0.577,0.695l-0.357-0.402C40.095,146.486,40.246,146.291,40.33,146.092z"/>
		<path d="M32.538,143.832c-0.508-0.697-0.712-1.357-0.611-1.982c0.102-0.629,0.524-1.229,1.27-1.799
			c0.744-0.574,1.436-0.828,2.064-0.764c0.632,0.064,1.22,0.432,1.758,1.1l1.193,1.551l-4.483,3.445L32.538,143.832z
			 M36.821,140.883c-0.248-0.324-0.497-0.574-0.745-0.754c-0.245-0.18-0.504-0.287-0.77-0.322c-0.267-0.035-0.547,0.004-0.84,0.115
			c-0.293,0.113-0.606,0.297-0.942,0.557c-0.337,0.256-0.595,0.512-0.778,0.766c-0.186,0.254-0.293,0.516-0.33,0.783
			c-0.033,0.266,0.004,0.541,0.113,0.826s0.287,0.588,0.535,0.912l0.701,0.91l3.755-2.885L36.821,140.883z"/>
		<path d="M31.82,137.262l-1.071-1.668l0.386-0.248l1.071,1.666L31.82,137.262z"/>
		<path d="M29.972,131.789c0.126-0.174,0.202-0.363,0.227-0.564s0.004-0.412-0.058-0.637c-0.062-0.225-0.155-0.451-0.276-0.68
			c-0.068-0.131-0.163-0.262-0.283-0.396c-0.119-0.133-0.256-0.246-0.406-0.334c-0.152-0.09-0.315-0.145-0.491-0.164
			c-0.175-0.021-0.354,0.018-0.536,0.115c-0.138,0.074-0.243,0.17-0.313,0.287c-0.068,0.117-0.111,0.244-0.128,0.381
			c-0.017,0.139-0.015,0.281,0.006,0.426c0.021,0.143,0.048,0.281,0.083,0.412l0.317,1.256c0.041,0.166,0.068,0.332,0.085,0.498
			c0.019,0.168,0.008,0.328-0.031,0.479c-0.039,0.154-0.107,0.297-0.21,0.432c-0.102,0.133-0.25,0.252-0.446,0.357
			c-0.121,0.064-0.276,0.119-0.462,0.158c-0.189,0.041-0.39,0.035-0.603-0.018c-0.212-0.049-0.429-0.16-0.647-0.33
			c-0.219-0.172-0.423-0.432-0.608-0.781c-0.131-0.246-0.226-0.5-0.277-0.758c-0.056-0.258-0.062-0.506-0.021-0.742
			c0.042-0.238,0.132-0.459,0.272-0.66c0.141-0.205,0.339-0.373,0.595-0.512l0.253,0.477c-0.188,0.111-0.33,0.244-0.431,0.396
			c-0.102,0.15-0.167,0.314-0.196,0.488c-0.03,0.176-0.026,0.357,0.011,0.543c0.037,0.188,0.101,0.369,0.195,0.545
			c0.087,0.162,0.188,0.311,0.304,0.445c0.115,0.131,0.243,0.234,0.38,0.307c0.138,0.074,0.289,0.111,0.451,0.113
			c0.163,0.004,0.339-0.043,0.524-0.143c0.117-0.061,0.206-0.135,0.272-0.223c0.066-0.084,0.109-0.176,0.132-0.279
			c0.024-0.104,0.031-0.209,0.019-0.32c-0.01-0.111-0.033-0.223-0.063-0.338l-0.347-1.377c-0.048-0.201-0.081-0.398-0.095-0.59
			c-0.015-0.193-0.005-0.375,0.032-0.547c0.037-0.174,0.109-0.33,0.217-0.475c0.109-0.145,0.267-0.271,0.471-0.381
			c0.058-0.029,0.134-0.064,0.233-0.102c0.099-0.037,0.214-0.064,0.342-0.074c0.128-0.012,0.269-0.006,0.419,0.02
			c0.15,0.023,0.306,0.084,0.467,0.18c0.163,0.098,0.325,0.236,0.493,0.418c0.165,0.182,0.323,0.416,0.48,0.711
			c0.156,0.293,0.268,0.584,0.336,0.873c0.066,0.287,0.074,0.555,0.031,0.807c-0.046,0.252-0.152,0.482-0.322,0.697
			c-0.167,0.211-0.408,0.393-0.724,0.543l-0.254-0.477C29.649,132.119,29.842,131.967,29.972,131.789z"/>
		<path d="M22.138,126.078l0.417-0.189l0.816,1.793l4.727-2.152l0.226,0.492l-4.729,2.152l0.815,1.785l-0.419,0.193L22.138,126.078z
			"/>
		<path d="M23.466,124.844c-0.371,0.02-0.722-0.027-1.054-0.141c-0.334-0.109-0.634-0.295-0.901-0.553
			c-0.269-0.256-0.481-0.592-0.638-1.01c-0.155-0.414-0.217-0.805-0.182-1.174s0.138-0.703,0.315-1.006
			c0.178-0.305,0.411-0.57,0.704-0.797s0.62-0.41,0.985-0.547c0.367-0.139,0.735-0.217,1.104-0.236
			c0.369-0.021,0.72,0.025,1.05,0.137c0.33,0.113,0.629,0.297,0.897,0.551c0.267,0.256,0.479,0.59,0.636,1.006
			c0.154,0.416,0.217,0.809,0.182,1.18c-0.031,0.369-0.137,0.705-0.31,1.01c-0.174,0.301-0.409,0.566-0.699,0.795
			c-0.293,0.227-0.621,0.408-0.988,0.547C24.203,124.742,23.836,124.82,23.466,124.844z M25.185,123.67
			c0.252-0.182,0.456-0.395,0.617-0.639c0.159-0.242,0.258-0.516,0.297-0.818c0.039-0.301-0.008-0.627-0.138-0.98
			c-0.133-0.35-0.312-0.625-0.539-0.824c-0.229-0.199-0.48-0.34-0.761-0.418c-0.281-0.076-0.576-0.104-0.884-0.074
			c-0.307,0.029-0.604,0.098-0.891,0.205c-0.291,0.109-0.562,0.254-0.809,0.436c-0.248,0.18-0.454,0.391-0.613,0.633
			c-0.159,0.244-0.26,0.516-0.299,0.814c-0.039,0.301,0.008,0.625,0.138,0.977c0.133,0.35,0.312,0.627,0.541,0.828
			c0.227,0.203,0.48,0.344,0.761,0.422c0.281,0.078,0.574,0.104,0.879,0.076c0.306-0.027,0.603-0.098,0.896-0.205
			C24.667,123.992,24.936,123.85,25.185,123.67z"/>
		<path d="M18.977,117.02c-0.063-0.223-0.099-0.443-0.101-0.66c-0.004-0.215,0.03-0.414,0.101-0.598s0.182-0.346,0.335-0.488
			c0.154-0.139,0.353-0.246,0.596-0.316c0.345-0.102,0.671-0.102,0.974,0.002c0.306,0.104,0.547,0.32,0.718,0.648l0.017-0.006
			c-0.026-0.184-0.022-0.344,0.011-0.48c0.035-0.135,0.095-0.258,0.18-0.363c0.084-0.102,0.191-0.191,0.321-0.266
			s0.274-0.141,0.434-0.197c0.091-0.031,0.2-0.068,0.33-0.113c0.132-0.045,0.26-0.092,0.39-0.146c0.13-0.057,0.25-0.117,0.359-0.184
			c0.109-0.068,0.188-0.139,0.239-0.215l0.165,0.568c-0.041,0.049-0.097,0.09-0.163,0.129c-0.07,0.039-0.143,0.074-0.219,0.105
			c-0.076,0.029-0.152,0.059-0.225,0.086c-0.074,0.027-0.141,0.051-0.192,0.072c-0.191,0.066-0.377,0.139-0.561,0.217
			c-0.184,0.08-0.339,0.178-0.467,0.295c-0.13,0.115-0.219,0.258-0.268,0.426c-0.052,0.164-0.035,0.369,0.047,0.607l0.574,1.963
			l2.407-0.707l0.152,0.518l-5.426,1.588L18.977,117.02z M21.564,116.303c-0.046-0.158-0.114-0.301-0.205-0.426
			c-0.088-0.131-0.193-0.232-0.315-0.312c-0.124-0.08-0.258-0.131-0.406-0.158c-0.146-0.025-0.306-0.014-0.473,0.035
			c-0.334,0.1-0.569,0.271-0.705,0.521c-0.137,0.248-0.146,0.57-0.031,0.965l0.565,1.93l2.135-0.625L21.564,116.303z"/>
		<path d="M17.347,110.336l0.45-0.102l0.729,3.285l1.995-0.445l-0.684-3.076l0.448-0.098l0.683,3.076l2.181-0.486l-0.738-3.322
			l0.447-0.1l0.856,3.85l-5.519,1.229L17.347,110.336z"/>
		<path d="M21.216,106.049c0.181-0.119,0.319-0.27,0.414-0.449c0.093-0.18,0.15-0.383,0.172-0.617
			c0.022-0.229,0.016-0.473-0.017-0.729c-0.019-0.148-0.061-0.307-0.124-0.473c-0.064-0.168-0.15-0.32-0.262-0.459
			c-0.109-0.139-0.244-0.248-0.4-0.328c-0.157-0.08-0.337-0.107-0.541-0.082c-0.158,0.021-0.289,0.074-0.396,0.156
			c-0.105,0.088-0.192,0.189-0.256,0.314c-0.064,0.121-0.111,0.254-0.145,0.398c-0.033,0.139-0.056,0.279-0.072,0.414l-0.146,1.287
			c-0.021,0.17-0.054,0.332-0.098,0.496c-0.043,0.162-0.111,0.307-0.199,0.438c-0.091,0.127-0.207,0.236-0.349,0.324
			c-0.145,0.092-0.326,0.152-0.547,0.178c-0.137,0.018-0.298,0.014-0.489-0.018c-0.189-0.027-0.373-0.105-0.555-0.227
			c-0.18-0.125-0.343-0.307-0.487-0.541c-0.145-0.24-0.241-0.553-0.291-0.947c-0.035-0.277-0.033-0.545,0.009-0.807
			c0.041-0.26,0.123-0.492,0.245-0.701c0.124-0.207,0.287-0.381,0.489-0.521c0.204-0.139,0.449-0.229,0.736-0.266l0.068,0.535
			c-0.213,0.037-0.395,0.109-0.543,0.217c-0.15,0.107-0.269,0.236-0.359,0.387c-0.088,0.154-0.15,0.324-0.181,0.512
			c-0.033,0.189-0.035,0.383-0.011,0.58c0.022,0.184,0.063,0.357,0.126,0.523c0.06,0.164,0.143,0.307,0.245,0.424
			c0.102,0.117,0.229,0.205,0.382,0.266c0.15,0.061,0.33,0.08,0.541,0.053c0.132-0.018,0.241-0.055,0.332-0.111
			c0.093-0.057,0.167-0.129,0.225-0.215c0.058-0.09,0.102-0.186,0.13-0.293c0.029-0.107,0.05-0.219,0.062-0.338l0.163-1.41
			c0.029-0.205,0.068-0.402,0.122-0.588c0.054-0.184,0.128-0.35,0.225-0.496c0.096-0.148,0.219-0.271,0.372-0.367
			c0.152-0.098,0.344-0.16,0.575-0.191c0.064-0.006,0.146-0.012,0.254-0.012s0.223,0.02,0.347,0.053
			c0.124,0.035,0.252,0.092,0.384,0.166c0.132,0.076,0.256,0.189,0.373,0.336c0.118,0.148,0.221,0.336,0.312,0.564
			c0.089,0.229,0.155,0.506,0.198,0.836c0.041,0.33,0.041,0.643,0.002,0.936c-0.041,0.291-0.126,0.547-0.258,0.766
			s-0.313,0.398-0.547,0.535c-0.23,0.139-0.521,0.223-0.87,0.25l-0.068-0.533C20.799,106.242,21.034,106.168,21.216,106.049z"/>
		<path d="M16.221,102.441l-0.044-0.631l2.734-2.053l-2.987-1.654l-0.044-0.639l3.471,2l2.323-0.16l0.037,0.539L19.388,100
			L16.221,102.441z"/>
		<path d="M20.411,96.285c0.193-0.096,0.351-0.225,0.468-0.393c0.115-0.166,0.198-0.363,0.25-0.59s0.076-0.469,0.076-0.729
			c0-0.146-0.021-0.309-0.062-0.482c-0.044-0.174-0.109-0.336-0.202-0.486c-0.094-0.15-0.211-0.277-0.357-0.377
			c-0.145-0.1-0.319-0.152-0.526-0.152c-0.156,0-0.295,0.035-0.41,0.107c-0.117,0.07-0.215,0.164-0.295,0.275
			c-0.078,0.113-0.143,0.238-0.194,0.377c-0.049,0.137-0.091,0.271-0.124,0.402l-0.309,1.26c-0.044,0.164-0.096,0.322-0.159,0.48
			c-0.064,0.154-0.148,0.291-0.256,0.406c-0.105,0.115-0.233,0.207-0.388,0.279c-0.153,0.072-0.341,0.105-0.562,0.105
			c-0.138,0-0.299-0.025-0.484-0.08c-0.184-0.051-0.357-0.15-0.521-0.297c-0.165-0.145-0.303-0.344-0.414-0.598
			c-0.114-0.254-0.172-0.58-0.17-0.975c0-0.281,0.037-0.547,0.111-0.801c0.075-0.254,0.187-0.475,0.335-0.664
			c0.146-0.189,0.332-0.342,0.551-0.453c0.219-0.113,0.475-0.17,0.766-0.17l-0.003,0.539c-0.216,0.01-0.406,0.057-0.564,0.145
			c-0.163,0.088-0.298,0.199-0.407,0.34c-0.106,0.141-0.189,0.301-0.245,0.482s-0.083,0.373-0.085,0.574
			c0,0.186,0.021,0.365,0.061,0.533c0.039,0.174,0.101,0.322,0.188,0.453c0.089,0.129,0.202,0.234,0.345,0.312
			c0.142,0.08,0.319,0.121,0.53,0.121c0.132,0,0.247-0.021,0.344-0.066c0.1-0.045,0.182-0.107,0.25-0.186
			c0.07-0.078,0.126-0.17,0.167-0.273c0.044-0.104,0.076-0.213,0.104-0.33l0.343-1.375c0.053-0.203,0.119-0.391,0.195-0.566
			c0.076-0.178,0.172-0.334,0.285-0.465c0.115-0.137,0.254-0.242,0.417-0.318c0.162-0.076,0.362-0.113,0.594-0.113
			c0.063,0,0.148,0.008,0.254,0.02c0.105,0.014,0.217,0.047,0.336,0.096c0.12,0.049,0.239,0.121,0.359,0.215
			c0.121,0.092,0.23,0.219,0.328,0.381c0.099,0.16,0.177,0.359,0.237,0.6c0.06,0.236,0.089,0.521,0.089,0.854
			s-0.037,0.641-0.116,0.926c-0.076,0.285-0.195,0.529-0.353,0.729c-0.159,0.199-0.363,0.355-0.61,0.463
			c-0.25,0.107-0.547,0.152-0.896,0.135v-0.537C19.972,96.424,20.215,96.381,20.411,96.285z"/>
		<path d="M16.193,87.545l0.458,0.029l-0.126,1.967l5.186,0.33l-0.033,0.537l-5.185-0.328l-0.124,1.959l-0.458-0.029L16.193,87.545z
			"/>
		<path d="M16.759,82.893l0.456,0.057l-0.412,3.34l2.025,0.252l0.388-3.127l0.456,0.057l-0.388,3.127l2.216,0.273l0.419-3.379
			l0.456,0.057l-0.485,3.914l-5.611-0.695L16.759,82.893z"/>
		<path d="M17.066,81.045l5.228-0.869l-4.479-2.881l0.156-0.779l5.544,1.111l-0.105,0.525l-4.792-0.957l-0.002,0.016l4.413,2.852
			l-0.102,0.498l-5.155,0.865l-0.003,0.018l4.791,0.957l-0.105,0.527l-5.546-1.107L17.066,81.045z"/>
		<path d="M22.796,75.969c0.215-0.039,0.4-0.121,0.555-0.25c0.157-0.129,0.291-0.297,0.4-0.5c0.109-0.207,0.2-0.434,0.271-0.684
			c0.039-0.143,0.062-0.303,0.067-0.48c0.009-0.18-0.014-0.355-0.063-0.523c-0.048-0.17-0.126-0.324-0.241-0.459
			c-0.111-0.135-0.267-0.23-0.465-0.287c-0.152-0.043-0.295-0.047-0.425-0.01c-0.132,0.037-0.252,0.102-0.356,0.189
			c-0.109,0.088-0.204,0.191-0.289,0.309c-0.087,0.119-0.161,0.236-0.227,0.357l-0.64,1.127c-0.083,0.146-0.178,0.285-0.281,0.418
			c-0.103,0.133-0.221,0.24-0.354,0.326c-0.132,0.082-0.282,0.137-0.45,0.164c-0.165,0.027-0.356,0.01-0.569-0.049
			c-0.132-0.037-0.28-0.105-0.443-0.207c-0.165-0.102-0.306-0.24-0.423-0.428c-0.12-0.184-0.198-0.412-0.239-0.686
			c-0.039-0.277-0.006-0.604,0.099-0.984c0.077-0.271,0.184-0.516,0.324-0.74c0.141-0.223,0.306-0.406,0.499-0.551
			c0.194-0.143,0.413-0.24,0.654-0.289c0.241-0.051,0.501-0.035,0.782,0.043l-0.146,0.518c-0.211-0.049-0.406-0.051-0.584-0.012
			c-0.178,0.041-0.341,0.113-0.48,0.219c-0.143,0.105-0.267,0.238-0.367,0.398c-0.104,0.16-0.182,0.338-0.235,0.529
			c-0.05,0.18-0.081,0.355-0.087,0.533c-0.011,0.174,0.011,0.336,0.06,0.484c0.05,0.148,0.132,0.279,0.248,0.395
			c0.115,0.113,0.274,0.201,0.479,0.258c0.126,0.035,0.243,0.045,0.351,0.027c0.105-0.016,0.202-0.053,0.289-0.111
			c0.089-0.057,0.165-0.129,0.235-0.219c0.067-0.088,0.13-0.184,0.188-0.289l0.699-1.232c0.105-0.18,0.219-0.344,0.341-0.494
			c0.119-0.148,0.254-0.273,0.4-0.373c0.146-0.098,0.309-0.162,0.484-0.191c0.18-0.029,0.38-0.012,0.604,0.049
			c0.06,0.018,0.141,0.045,0.237,0.09c0.099,0.041,0.198,0.1,0.299,0.182c0.102,0.08,0.198,0.182,0.289,0.303
			s0.163,0.271,0.213,0.455c0.051,0.18,0.072,0.395,0.067,0.641c-0.006,0.242-0.054,0.527-0.142,0.846
			c-0.091,0.322-0.213,0.607-0.361,0.861c-0.152,0.254-0.33,0.457-0.539,0.607c-0.204,0.15-0.443,0.244-0.709,0.281
			c-0.269,0.037-0.569,0-0.899-0.107l0.145-0.52C22.336,75.986,22.583,76.006,22.796,75.969z"/>
		<path d="M20.848,67.08l5.299,0.092l-3.883-3.643l0.293-0.736l5.25,2.092l-0.197,0.5l-4.539-1.809l-0.007,0.014l3.823,3.604
			l-0.188,0.473l-5.226-0.082L21.467,67.6l4.539,1.809l-0.2,0.5l-5.253-2.092L20.848,67.08z"/>
		<path d="M24.632,62.355c-0.269-0.256-0.475-0.543-0.619-0.863c-0.145-0.322-0.214-0.666-0.21-1.037
			c0.006-0.371,0.107-0.756,0.305-1.154c0.196-0.398,0.442-0.709,0.732-0.934c0.293-0.227,0.611-0.379,0.954-0.457
			c0.34-0.078,0.694-0.088,1.06-0.027c0.367,0.055,0.725,0.172,1.073,0.346c0.351,0.174,0.66,0.391,0.927,0.646
			c0.268,0.256,0.474,0.545,0.616,0.861c0.143,0.318,0.213,0.662,0.207,1.031c-0.005,0.369-0.104,0.754-0.302,1.15
			c-0.196,0.398-0.441,0.709-0.734,0.938c-0.293,0.23-0.61,0.385-0.951,0.463c-0.338,0.078-0.691,0.088-1.059,0.031
			c-0.367-0.059-0.724-0.176-1.072-0.35C25.208,62.828,24.9,62.613,24.632,62.355z M26.664,62.812
			c0.304,0.061,0.599,0.064,0.885,0.016c0.287-0.049,0.554-0.164,0.801-0.342c0.25-0.178,0.456-0.434,0.623-0.77
			c0.165-0.336,0.243-0.654,0.235-0.957c-0.008-0.301-0.08-0.582-0.215-0.84c-0.134-0.258-0.315-0.49-0.547-0.697
			c-0.23-0.203-0.484-0.375-0.757-0.512c-0.28-0.139-0.569-0.236-0.87-0.295c-0.302-0.059-0.595-0.064-0.882-0.014
			c-0.286,0.049-0.553,0.16-0.8,0.336c-0.246,0.176-0.452,0.432-0.619,0.768s-0.246,0.656-0.239,0.959
			c0.008,0.305,0.08,0.588,0.215,0.844c0.134,0.258,0.313,0.492,0.542,0.695c0.229,0.207,0.483,0.375,0.76,0.516
			C26.072,62.656,26.36,62.754,26.664,62.812z"/>
		<path d="M27.187,53.91c0.119-0.203,0.256-0.391,0.406-0.555c0.15-0.166,0.313-0.293,0.491-0.381
			c0.179-0.088,0.369-0.131,0.571-0.127c0.204,0.004,0.419,0.074,0.646,0.207c0.128,0.076,0.239,0.17,0.334,0.281
			c0.098,0.113,0.174,0.236,0.226,0.369c0.053,0.131,0.084,0.27,0.091,0.412c0.01,0.143-0.013,0.285-0.061,0.428l0.015,0.01
			c0.225-0.291,0.501-0.465,0.827-0.523c0.328-0.059,0.648,0.008,0.968,0.195c0.078,0.045,0.161,0.105,0.25,0.176
			c0.091,0.072,0.173,0.158,0.251,0.26c0.079,0.1,0.145,0.221,0.198,0.355c0.054,0.137,0.081,0.291,0.079,0.467
			c-0.003,0.174-0.033,0.367-0.098,0.586c-0.063,0.217-0.175,0.457-0.33,0.721l-1.217,2.057l-4.867-2.881L27.187,53.91z
			 M29.319,55.174c0.109-0.189,0.184-0.361,0.221-0.525c0.037-0.16,0.046-0.309,0.022-0.443c-0.021-0.137-0.067-0.256-0.14-0.361
			s-0.165-0.189-0.281-0.256c-0.606-0.361-1.128-0.174-1.562,0.557l-0.942,1.594l1.736,1.027L29.319,55.174z M31.655,56.555
			c0.103-0.172,0.184-0.344,0.245-0.516c0.063-0.17,0.091-0.34,0.082-0.502c-0.006-0.166-0.056-0.32-0.144-0.465
			c-0.089-0.145-0.231-0.275-0.428-0.391c-0.313-0.186-0.612-0.215-0.899-0.086c-0.287,0.125-0.555,0.398-0.798,0.811l-0.945,1.596
			l1.943,1.148L31.655,56.555z"/>
		<path d="M29.138,50.805l4.727,3.104l-0.295,0.449l-4.729-3.102L29.138,50.805z"/>
		<path d="M30.19,49.242l4.227,3.018l1.841-2.576l0.373,0.266l-2.151,3.016l-4.604-3.285L30.19,49.242z"/>
		<path d="M34.98,42.992l0.357,0.289l-2.115,2.617l1.591,1.283l1.979-2.453l0.357,0.289l-1.979,2.453l1.736,1.402l2.138-2.65
			l0.359,0.289l-2.479,3.068l-4.398-3.551L34.98,42.992z"/>
		<path d="M38.607,39.047c0.617-0.6,1.242-0.893,1.878-0.883c0.635,0.014,1.287,0.348,1.96,1.004
			c0.672,0.656,1.021,1.301,1.046,1.938c0.024,0.633-0.254,1.264-0.842,1.895l-1.368,1.398l-4.041-3.951L38.607,39.047z
			 M42.134,42.871c0.284-0.289,0.497-0.57,0.64-0.84c0.142-0.271,0.212-0.541,0.21-0.809c-0.004-0.27-0.08-0.541-0.233-0.816
			c-0.152-0.273-0.379-0.559-0.683-0.854c-0.301-0.297-0.592-0.518-0.868-0.662c-0.279-0.146-0.551-0.219-0.821-0.217
			c-0.269,0.004-0.536,0.08-0.803,0.229c-0.266,0.148-0.543,0.367-0.827,0.658l-0.803,0.822l3.386,3.311L42.134,42.871z"/>
		<path d="M44.185,33.801l0.307,0.342l-2.508,2.246l1.363,1.521l2.348-2.102L46,36.15l-2.348,2.102l1.489,1.664l2.538-2.271
			l0.305,0.342l-2.938,2.631l-3.771-4.213L44.185,33.801z"/>
		<path d="M44.964,33.158l4.578,2.83l0.013-0.008l-1.706-5.104l0.447-0.352l1.857,5.738l-0.491,0.387l-5.146-3.143L44.964,33.158z"
			/>
		<path d="M52.115,27.871l0.262,0.375l-2.765,1.92l1.166,1.68l2.589-1.797l0.262,0.377l-2.589,1.797l1.273,1.834l2.797-1.941
			l0.263,0.375l-3.241,2.252l-3.223-4.646L52.115,27.871z"/>
		<path d="M53.464,27.031l2.705,4.434l2.703-1.648l0.241,0.393l-3.165,1.93l-2.944-4.828L53.464,27.031z"/>
		<path d="M57.558,26.547c-0.064-0.367-0.062-0.721,0.008-1.064c0.072-0.342,0.219-0.664,0.441-0.961
			c0.224-0.299,0.53-0.549,0.925-0.754c0.392-0.205,0.773-0.312,1.143-0.326c0.37-0.01,0.716,0.055,1.038,0.193
			c0.322,0.137,0.615,0.338,0.877,0.6s0.482,0.566,0.664,0.914c0.18,0.344,0.304,0.701,0.367,1.066
			c0.066,0.365,0.062,0.719-0.01,1.059c-0.072,0.342-0.219,0.66-0.438,0.957c-0.221,0.295-0.528,0.547-0.92,0.752
			c-0.395,0.205-0.776,0.312-1.149,0.328c-0.371,0.01-0.716-0.053-1.038-0.188c-0.321-0.135-0.612-0.336-0.875-0.598
			c-0.262-0.262-0.482-0.566-0.664-0.914C57.747,27.268,57.624,26.912,57.558,26.547z M58.934,28.111
			c0.211,0.227,0.445,0.404,0.706,0.533c0.262,0.129,0.544,0.193,0.85,0.195c0.304,0.002,0.621-0.086,0.953-0.256
			c0.332-0.174,0.586-0.387,0.755-0.637c0.172-0.248,0.276-0.518,0.32-0.807c0.045-0.287,0.033-0.582-0.033-0.883
			c-0.064-0.303-0.167-0.59-0.31-0.861c-0.143-0.275-0.319-0.527-0.53-0.75c-0.208-0.225-0.443-0.402-0.705-0.529
			c-0.261-0.131-0.543-0.197-0.845-0.199c-0.301-0.004-0.618,0.084-0.95,0.254c-0.333,0.176-0.586,0.389-0.76,0.639
			c-0.171,0.248-0.28,0.521-0.324,0.807c-0.043,0.289-0.032,0.584,0.033,0.883c0.062,0.299,0.167,0.588,0.312,0.861
			C58.548,27.635,58.724,27.885,58.934,28.111z"/>
		<path d="M64.698,21.172c0.233-0.1,0.458-0.16,0.675-0.174c0.216-0.02,0.423,0.01,0.612,0.078c0.192,0.07,0.363,0.182,0.516,0.334
			c0.153,0.15,0.278,0.344,0.38,0.578c0.102,0.232,0.154,0.455,0.161,0.67c0.008,0.217-0.029,0.416-0.109,0.605
			c-0.078,0.188-0.198,0.354-0.361,0.5c-0.159,0.148-0.356,0.273-0.588,0.373l-1.81,0.783l0.964,2.223l-0.495,0.213l-2.247-5.186
			L64.698,21.172z M65.692,23.762c0.343-0.148,0.584-0.355,0.723-0.623c0.136-0.266,0.128-0.58-0.027-0.938
			c-0.154-0.357-0.378-0.578-0.666-0.662c-0.289-0.082-0.604-0.047-0.949,0.102l-1.7,0.736l0.918,2.121L65.692,23.762z"/>
		<path d="M68.02,19.828l3.392,4.074l0.224-5.322l0.748-0.258l1.845,5.344l-0.508,0.176l-1.595-4.619l-0.017,0.006l-0.23,5.25
			l-0.479,0.164l-3.353-4.01l-0.017,0.006l1.595,4.617l-0.508,0.176l-1.847-5.346L68.02,19.828z"/>
		<path d="M77.545,16.941l0.116,0.443l-3.254,0.857l0.521,1.975l3.048-0.805l0.115,0.445l-3.045,0.805l0.569,2.158l3.293-0.867
			l0.115,0.443l-3.812,1.006l-1.442-5.467L77.545,16.941z"/>
		<path d="M79.18,16.586l4.139,4.074l0.016-0.004l-0.903-4.695l0.528-0.102l1.068,5.551l-0.592,0.115l-4.139-4.074l-0.015,0.002
			l0.903,4.697l-0.527,0.102l-1.069-5.553L79.18,16.586z"/>
		<path d="M88.193,15.178l0.058,0.455l-1.958,0.246l0.646,5.154l-0.534,0.064l-0.644-5.152l-1.95,0.242l-0.058-0.455L88.193,15.178z
			"/>
		<path d="M143.927,30.742c0.188,0.137,0.347,0.293,0.48,0.461c0.134,0.172,0.228,0.352,0.283,0.539
			c0.054,0.188,0.063,0.383,0.026,0.59s-0.132,0.41-0.28,0.615c-0.215,0.289-0.473,0.484-0.778,0.586
			c-0.305,0.105-0.627,0.076-0.965-0.078l-0.009,0.012c0.134,0.131,0.228,0.26,0.283,0.393c0.056,0.127,0.08,0.26,0.076,0.393
			c-0.002,0.135-0.035,0.271-0.093,0.41c-0.061,0.135-0.135,0.275-0.226,0.418c-0.051,0.078-0.117,0.176-0.193,0.289
			c-0.079,0.113-0.15,0.232-0.223,0.355c-0.07,0.121-0.128,0.24-0.174,0.363c-0.047,0.119-0.068,0.225-0.06,0.312l-0.479-0.35
			c0.006-0.062,0.024-0.131,0.054-0.203c0.03-0.072,0.067-0.145,0.111-0.215c0.041-0.07,0.082-0.139,0.126-0.205
			c0.043-0.066,0.078-0.125,0.109-0.176c0.111-0.166,0.214-0.34,0.313-0.512c0.099-0.172,0.163-0.346,0.193-0.516
			c0.031-0.172,0.017-0.338-0.045-0.5c-0.06-0.162-0.194-0.316-0.404-0.457l-1.645-1.215l-1.489,2.023l-0.434-0.32l3.354-4.551
			L143.927,30.742z M142.303,32.879c0.13,0.098,0.271,0.17,0.419,0.217s0.297,0.066,0.441,0.055c0.146-0.01,0.287-0.051,0.419-0.121
			c0.134-0.068,0.25-0.174,0.354-0.314c0.207-0.277,0.289-0.559,0.246-0.838c-0.041-0.281-0.229-0.545-0.56-0.789l-1.619-1.195
			l-1.32,1.793L142.303,32.879z"/>
		<path d="M143.714,36.018c-0.086,0.18-0.136,0.365-0.148,0.553c-0.015,0.189,0.013,0.375,0.079,0.561
			c0.063,0.186,0.188,0.355,0.371,0.508c0.278,0.232,0.557,0.342,0.838,0.33c0.28-0.014,0.551-0.117,0.814-0.311l0.384,0.32
			c-0.38,0.289-0.757,0.439-1.137,0.455c-0.38,0.012-0.768-0.148-1.166-0.479c-0.245-0.209-0.423-0.432-0.53-0.668
			c-0.107-0.238-0.152-0.48-0.14-0.727c0.012-0.246,0.076-0.494,0.189-0.74c0.113-0.244,0.262-0.48,0.45-0.703
			c0.173-0.207,0.369-0.385,0.59-0.539c0.221-0.152,0.454-0.26,0.697-0.32c0.241-0.061,0.493-0.062,0.753-0.008
			c0.262,0.057,0.514,0.186,0.762,0.393c0.251,0.213,0.423,0.441,0.518,0.691c0.093,0.252,0.126,0.506,0.101,0.764
			c-0.026,0.256-0.104,0.512-0.232,0.764c-0.131,0.254-0.291,0.484-0.481,0.699l-2.409-2.02
			C143.897,35.678,143.799,35.838,143.714,36.018z M146.586,36.434c0.066-0.172,0.1-0.346,0.1-0.52
			c0.002-0.176-0.031-0.346-0.102-0.51c-0.068-0.164-0.18-0.311-0.334-0.439c-0.157-0.133-0.324-0.217-0.5-0.256
			c-0.171-0.039-0.344-0.043-0.516-0.01c-0.171,0.033-0.338,0.094-0.503,0.188s-0.313,0.203-0.448,0.332l2.028,1.697
			C146.43,36.768,146.522,36.607,146.586,36.434z"/>
		<path d="M148.781,36.76l-0.532,0.564l0.013,0.012c0.278-0.129,0.567-0.16,0.864-0.096c0.297,0.066,0.567,0.213,0.809,0.439
			c0.229,0.213,0.386,0.441,0.475,0.684c0.089,0.24,0.119,0.486,0.097,0.736c-0.024,0.25-0.099,0.494-0.225,0.736
			c-0.124,0.238-0.287,0.467-0.485,0.678c-0.2,0.211-0.414,0.387-0.647,0.527c-0.231,0.141-0.473,0.23-0.718,0.27
			c-0.248,0.039-0.495,0.023-0.741-0.051c-0.243-0.076-0.48-0.219-0.707-0.432c-0.107-0.102-0.202-0.217-0.285-0.344
			c-0.082-0.131-0.145-0.264-0.188-0.404c-0.041-0.141-0.06-0.283-0.054-0.432c0.004-0.148,0.037-0.293,0.102-0.438l-0.013-0.014
			l-1.56,1.664l-0.365-0.34l3.827-4.076L148.781,36.76z M149.809,39.662c0.107-0.188,0.176-0.375,0.208-0.568
			c0.033-0.195,0.023-0.387-0.028-0.576c-0.054-0.191-0.167-0.367-0.339-0.531c-0.202-0.188-0.399-0.311-0.6-0.367
			s-0.395-0.064-0.584-0.025c-0.188,0.039-0.374,0.119-0.551,0.242c-0.178,0.125-0.345,0.271-0.504,0.439
			c-0.145,0.152-0.271,0.324-0.375,0.51c-0.105,0.188-0.176,0.379-0.202,0.576c-0.031,0.197-0.015,0.396,0.049,0.594
			c0.061,0.201,0.19,0.391,0.382,0.572c0.172,0.162,0.355,0.264,0.551,0.305c0.192,0.039,0.386,0.037,0.576-0.008
			c0.189-0.043,0.375-0.129,0.555-0.244c0.18-0.117,0.341-0.254,0.487-0.408C149.577,40.02,149.703,39.848,149.809,39.662z"/>
		<path d="M153.271,38.922l-4.027,3.967l-0.351-0.354l4.029-3.971L153.271,38.922z"/>
		<path d="M152.501,41.275c0.186-0.055,0.369-0.068,0.549-0.035s0.354,0.104,0.526,0.211c0.169,0.109,0.338,0.252,0.497,0.428
			c0.119,0.131,0.229,0.275,0.324,0.43c0.097,0.158,0.156,0.318,0.184,0.488c0.026,0.168,0.006,0.344-0.061,0.527
			c-0.065,0.182-0.197,0.365-0.402,0.551l-1.601,1.465c-0.146,0.137-0.154,0.275-0.022,0.42c0.039,0.043,0.082,0.074,0.13,0.094
			l-0.31,0.285c-0.048-0.037-0.087-0.068-0.122-0.098c-0.035-0.031-0.074-0.07-0.121-0.121c-0.085-0.094-0.141-0.18-0.167-0.26
			c-0.025-0.078-0.031-0.156-0.013-0.23s0.056-0.145,0.111-0.213c0.056-0.07,0.122-0.139,0.2-0.211l-0.013-0.012
			c-0.158,0.023-0.305,0.037-0.443,0.037c-0.139,0.002-0.272-0.018-0.398-0.055c-0.128-0.037-0.254-0.096-0.379-0.18
			c-0.126-0.082-0.256-0.195-0.393-0.344c-0.128-0.141-0.23-0.287-0.312-0.439c-0.078-0.152-0.124-0.307-0.134-0.467
			c-0.013-0.156,0.012-0.312,0.076-0.469c0.063-0.152,0.169-0.301,0.322-0.439c0.21-0.191,0.416-0.295,0.62-0.311
			c0.205-0.014,0.409,0.027,0.611,0.123c0.204,0.098,0.406,0.23,0.608,0.398c0.202,0.17,0.404,0.346,0.61,0.52
			c0.079,0.07,0.151,0.133,0.217,0.18c0.066,0.049,0.128,0.076,0.194,0.09c0.063,0.012,0.132,0.006,0.202-0.02
			c0.07-0.023,0.146-0.076,0.229-0.148c0.124-0.115,0.209-0.229,0.25-0.342c0.043-0.115,0.056-0.229,0.035-0.346
			c-0.021-0.113-0.062-0.227-0.134-0.338c-0.07-0.111-0.155-0.223-0.254-0.33c-0.215-0.234-0.444-0.375-0.689-0.42
			c-0.25-0.049-0.497,0.039-0.749,0.254l-0.336-0.367C152.132,41.436,152.317,41.332,152.501,41.275z M153.287,43.939
			c-0.063,0.016-0.139,0-0.217-0.049c-0.08-0.049-0.146-0.094-0.202-0.137c-0.169-0.133-0.34-0.271-0.514-0.418
			c-0.173-0.143-0.343-0.268-0.512-0.365c-0.167-0.096-0.33-0.15-0.489-0.164c-0.16-0.016-0.315,0.043-0.462,0.18
			c-0.095,0.086-0.158,0.18-0.198,0.283c-0.039,0.102-0.053,0.209-0.051,0.318c0.006,0.111,0.032,0.219,0.08,0.326
			c0.045,0.107,0.109,0.205,0.188,0.291c0.128,0.139,0.272,0.254,0.434,0.344c0.161,0.088,0.324,0.143,0.495,0.164
			c0.167,0.021,0.336,0.004,0.506-0.045c0.167-0.051,0.327-0.143,0.474-0.279l0.479-0.438L153.287,43.939z"/>
		<path d="M156.908,46.225c0.017-0.254-0.081-0.51-0.291-0.766c-0.15-0.184-0.322-0.312-0.514-0.387
			c-0.192-0.076-0.388-0.107-0.59-0.096c-0.202,0.014-0.402,0.061-0.603,0.146s-0.384,0.197-0.551,0.334
			c-0.168,0.137-0.312,0.295-0.434,0.475c-0.124,0.178-0.211,0.367-0.262,0.562c-0.052,0.195-0.058,0.395-0.021,0.598
			c0.034,0.201,0.127,0.395,0.28,0.578c0.097,0.117,0.21,0.213,0.343,0.281c0.132,0.068,0.271,0.113,0.416,0.129
			c0.146,0.016,0.297,0.006,0.45-0.033c0.154-0.037,0.303-0.104,0.443-0.197l0.315,0.385c-0.427,0.262-0.842,0.365-1.244,0.314
			c-0.399-0.053-0.749-0.26-1.041-0.617c-0.198-0.242-0.331-0.492-0.395-0.75c-0.066-0.258-0.074-0.508-0.027-0.76
			c0.046-0.25,0.145-0.492,0.293-0.723c0.149-0.23,0.337-0.439,0.565-0.627c0.229-0.188,0.471-0.332,0.727-0.434
			s0.51-0.148,0.766-0.146c0.254,0.002,0.503,0.061,0.744,0.172c0.244,0.113,0.463,0.289,0.661,0.529
			c0.278,0.338,0.423,0.699,0.437,1.082c0.013,0.379-0.144,0.744-0.47,1.086l-0.316-0.385
			C156.784,46.729,156.89,46.479,156.908,46.225z"/>
		<path d="M156.441,49.156c-0.126,0.154-0.217,0.322-0.276,0.502c-0.056,0.18-0.076,0.367-0.056,0.562
			c0.019,0.197,0.097,0.389,0.237,0.58c0.217,0.295,0.462,0.467,0.736,0.523c0.274,0.051,0.565,0.016,0.867-0.107l0.295,0.402
			c-0.438,0.189-0.842,0.244-1.214,0.168c-0.371-0.078-0.709-0.326-1.015-0.742c-0.191-0.26-0.31-0.518-0.356-0.773
			c-0.048-0.258-0.037-0.504,0.035-0.738c0.071-0.238,0.193-0.461,0.36-0.674c0.169-0.213,0.371-0.404,0.604-0.578
			c0.217-0.158,0.452-0.283,0.701-0.381c0.25-0.096,0.502-0.145,0.754-0.145c0.251-0.002,0.497,0.057,0.734,0.174
			c0.241,0.115,0.456,0.303,0.646,0.561c0.194,0.264,0.306,0.531,0.336,0.795c0.031,0.266,0.005,0.52-0.082,0.764
			c-0.087,0.242-0.223,0.473-0.408,0.689c-0.187,0.213-0.396,0.4-0.634,0.562l-1.859-2.535
			C156.704,48.871,156.567,49.002,156.441,49.156z M159.132,50.246c0.105-0.152,0.18-0.312,0.221-0.482
			c0.046-0.17,0.052-0.34,0.022-0.518c-0.026-0.176-0.099-0.346-0.218-0.506c-0.122-0.166-0.263-0.289-0.424-0.367
			c-0.16-0.08-0.325-0.123-0.499-0.135c-0.175-0.01-0.353,0.012-0.534,0.062s-0.354,0.123-0.516,0.217l1.565,2.131
			C158.901,50.531,159.029,50.398,159.132,50.246z"/>
		<path d="M164.027,52.564l-3.311,4.137l5.259-0.846l0.402,0.684l-4.865,2.877l-0.276-0.463l4.207-2.488l-0.009-0.012l-5.188,0.822
			l-0.258-0.436l3.258-4.09l-0.009-0.014l-4.204,2.488l-0.274-0.463l4.867-2.879L164.027,52.564z"/>
		<path d="M163.289,59.969c-0.15,0.129-0.268,0.277-0.356,0.447c-0.085,0.166-0.137,0.348-0.151,0.545
			c-0.014,0.195,0.031,0.4,0.139,0.611c0.163,0.326,0.375,0.539,0.638,0.639c0.262,0.098,0.553,0.113,0.87,0.041l0.224,0.447
			c-0.463,0.113-0.871,0.102-1.224-0.039c-0.354-0.139-0.644-0.439-0.877-0.902c-0.145-0.287-0.217-0.562-0.221-0.824
			c-0.002-0.26,0.049-0.502,0.161-0.723c0.111-0.219,0.266-0.42,0.47-0.602c0.2-0.18,0.432-0.334,0.691-0.465
			c0.241-0.119,0.493-0.209,0.755-0.258c0.265-0.053,0.521-0.061,0.768-0.02c0.248,0.045,0.479,0.141,0.695,0.297
			c0.217,0.154,0.396,0.375,0.541,0.664c0.146,0.293,0.212,0.57,0.197,0.84c-0.012,0.266-0.084,0.512-0.21,0.736
			c-0.126,0.227-0.299,0.428-0.518,0.609c-0.219,0.18-0.46,0.328-0.721,0.449l-1.404-2.812
			C163.595,59.73,163.439,59.836,163.289,59.969z M165.759,61.494c0.128-0.131,0.227-0.277,0.299-0.438
			c0.07-0.158,0.107-0.328,0.109-0.506c0.002-0.176-0.043-0.355-0.132-0.535c-0.093-0.184-0.208-0.328-0.353-0.436
			c-0.145-0.104-0.302-0.176-0.473-0.215c-0.169-0.039-0.349-0.049-0.536-0.029c-0.188,0.021-0.369,0.062-0.543,0.127l1.185,2.363
			C165.482,61.738,165.629,61.627,165.759,61.494z"/>
	</g>
</g>
</svg>
