<?xml version="1.0" encoding="utf-8"?>
<!-- Generator: Adobe Illustrator 16.0.4, SVG Export Plug-In . SVG Version: 6.00 Build 0)  -->
<!DOCTYPE svg PUBLIC "-//W3C//DTD SVG 1.1//EN" "http://www.w3.org/Graphics/SVG/1.1/DTD/svg11.dtd">
<svg version="1.1" id="Layer_1" xmlns="http://www.w3.org/2000/svg" xmlns:xlink="http://www.w3.org/1999/xlink" x="0px" y="0px"
	 width="192px" height="192px" viewBox="0 0 192 192" enable-background="new 0 0 192 192" xml:space="preserve">
<g>
	<path fill="none" stroke="#F2F2F2" stroke-linecap="round" stroke-miterlimit="10" d="M134.848,108.932
		c0-14.035,11.377-25.416,25.416-25.416c0.329,0,0.656,0.014,0.981,0.025c-0.933-5.811-2.515-11.4-4.656-16.707
		c-3.973,2.57-8.7,4.066-13.782,4.066c-14.041,0-25.418-11.379-25.418-25.414c0-6.418,2.385-12.275,6.309-16.748
		c-11.567-6.793-25.029-10.703-39.413-10.703c-43.058,0-77.963,34.906-77.963,77.967c0,43.057,34.905,77.963,77.963,77.963
		c29.575,0,55.301-16.467,68.516-40.732C142.404,130.045,134.848,120.373,134.848,108.932z"/>
	<path fill="none" stroke="#F2F2F2" stroke-linecap="round" stroke-miterlimit="10" d="M156.589,66.834
		c6.998-4.527,11.634-12.395,11.634-21.348c0-14.039-11.381-25.418-25.416-25.418c-7.621,0-14.455,3.357-19.109,8.67"/>
	<path fill="none" stroke="#F2F2F2" stroke-linecap="round" stroke-miterlimit="10" d="M152.799,133.232
		c2.359,0.723,4.867,1.115,7.465,1.115c14.036,0,25.416-11.38,25.416-25.416c0-13.708-10.854-24.874-24.435-25.392"/>
</g>
<g>
	<polyline fill="#F2F2F2" points="142.797,56.895 131.391,45.486 142.805,34.072 139.784,31.053 125.348,45.488 139.775,59.916 
		142.797,56.895 	"/>
	<polyline fill="#F3F3F3" points="145.834,31.053 142.812,34.074 154.218,45.48 142.805,56.896 145.825,59.916 160.26,45.48 
		145.834,31.053 	"/>
</g>
<g>
	<path fill="#F2F2F2" d="M160.26,103.609c0.736,0,1.344-0.381,1.428-0.879l0.729-8.243c0-0.812-0.954-1.482-2.154-1.482
		c-1.197,0-2.15,0.67-2.15,1.482l0.729,8.243C158.919,103.229,159.525,103.609,160.26,103.609L160.26,103.609"/>
	<path fill="#F2F2F2" d="M155.805,106.184c0.37-0.637,0.342-1.354-0.047-1.676l-6.773-4.75c-0.705-0.404-1.762,0.084-2.36,1.121
		c-0.601,1.039-0.492,2.201,0.211,2.607l7.499,3.49c0.467,0.174,1.107-0.16,1.475-0.797L155.805,106.184"/>
	<path fill="#F2F2F2" d="M164.717,106.18c0.368,0.637,1.006,0.971,1.473,0.797l7.502-3.49c0.707-0.405,0.809-1.567,0.209-2.606
		c-0.603-1.037-1.657-1.524-2.36-1.121l-6.772,4.75c-0.388,0.32-0.416,1.039-0.049,1.677L164.717,106.18"/>
	<path fill="#F2F2F2" d="M160.26,113.902c0.736,0,1.344,0.383,1.428,0.877l0.729,8.238c0,0.817-0.954,1.485-2.154,1.485
		c-1.197,0-2.15-0.668-2.15-1.485l0.729-8.238C158.919,114.285,159.525,113.902,160.26,113.902L160.26,113.902"/>
	<path fill="#F2F2F2" d="M164.717,111.33c0.368-0.641,1.006-0.971,1.473-0.797l7.502,3.488c0.707,0.41,0.809,1.569,0.209,2.608
		c-0.603,1.035-1.657,1.529-2.36,1.121l-6.772-4.748c-0.388-0.319-0.416-1.039-0.049-1.676L164.717,111.33"/>
	<path fill="#F2F2F2" d="M155.805,111.328c0.37,0.637,0.342,1.355-0.047,1.676l-6.773,4.748c-0.705,0.408-1.762-0.086-2.36-1.121
		c-0.601-1.039-0.492-2.199,0.211-2.609l7.499-3.487c0.467-0.175,1.107,0.155,1.475,0.797L155.805,111.328"/>
</g>
<path fill="#F5F5F5" d="M117.609,93.098h-0.111h-0.021c0.026-0.062,0.047-0.129,0.047-0.197h-0.442V73.617l-0.002-0.008
	c0.075-0.059,0.124-0.154,0.124-0.256v-0.576c0-0.184-0.146-0.332-0.331-0.332H66.107c0-0.059,0-0.135,0-0.217v-8.65
	c0-0.186-0.003-0.279-0.049-0.334l-0.57-1.045v-0.088c0-0.184-0.148-0.332-0.333-0.332h-3.137c-0.242-2.223-2.721-3.969-5.747-3.969
	c-3.022,0-5.503,1.746-5.745,3.969H47.59c-0.184,0-0.333,0.148-0.333,0.332v30.75h-0.455c0,0.086,0.02,0.164,0.045,0.236H46.73
	l-2.695,8.727v2.826h0.005h2.638h0.008h0.029h0.016h0.072H46.9l0.001,0.004c0.042,0.09,0.092,0.172,0.144,0.248l0.054,0.065
	l0.034,0.041v1.662l0.038,16.697c-0.001,0.6,0.292,1.155,0.778,1.592c0.374,0.345,0.869,0.613,1.438,0.772
	c0.169,0.047,0.342,0.084,0.52,0.111c0.146,0.021,0.296,0.037,0.449,0.045c0.062,0.002,0.125,0.004,0.186,0.004
	c0.02,0,0.035,0,0.053,0v-0.02l64.36-0.105l0.068-0.004h0.013l0.146-0.014l0.008-0.002l0.015-0.002l0.176-0.035l0.116-0.035
	l0.031-0.01l0.084-0.031l0.018-0.008l0.02-0.008l0.096-0.045l0.021-0.01l0.113-0.062l0.025-0.018l0.084-0.055l0.033-0.021l0.09-0.07
	l0.014-0.01l0.1-0.086l0.027-0.027l0.068-0.068l0.029-0.028l0.086-0.099l0.002-0.006l0.084-0.104l0.01-0.013l0.017-0.02l0.058-0.092
	l0.021-0.031l0.072-0.119l0.009-0.018l0.058-0.111l0.021-0.037l0.047-0.107l0.009-0.018l0.004-0.01l0.047-0.123l0.002-0.006
	l0.039-0.121l0.014-0.043l0.023-0.088l0.01-0.049l0.041-0.086c0-0.01,0.06-0.394,0.06-0.582l0.002-18.209l0.05-0.066l0.049-0.059
	c0.055-0.076,0.107-0.16,0.147-0.254h0.002h0.169l-0.003,0.321h0.011h0.018v-0.321h3.121v-2.73v-0.096L117.609,93.098z
	 M61.823,89.602c0,1.182-0.958,2.139-2.138,2.139h-4.81c-1.181,0-2.139-0.957-2.139-2.139v-7.658c0-1.18,0.958-2.139,2.139-2.139
	h4.81c1.18,0,2.138,0.959,2.138,2.139V89.602z M78.004,89.602c0,1.182-0.957,2.139-2.138,2.139h-4.811
	c-1.18,0-2.136-0.957-2.136-2.139v-7.658c0-1.18,0.956-2.139,2.136-2.139h4.811c1.181,0,2.138,0.959,2.138,2.139V89.602z
	 M94.185,89.602c0,1.182-0.956,2.139-2.136,2.139h-4.812c-1.181,0-2.137-0.957-2.137-2.139v-7.658c0-1.18,0.956-2.139,2.137-2.139
	h4.812c1.18,0,2.136,0.959,2.136,2.139V89.602z M110.367,89.602c0,1.182-0.959,2.139-2.139,2.139h-4.81
	c-1.181,0-2.14-0.957-2.14-2.139v-7.658c0-1.18,0.959-2.139,2.14-2.139h4.81c1.18,0,2.139,0.959,2.139,2.139V89.602z"/>
</svg>
