<?xml version="1.0" encoding="utf-8"?>
<!-- Generator: Adobe Illustrator 16.0.0, SVG Export Plug-In . SVG Version: 6.00 Build 0)  -->
<!DOCTYPE svg PUBLIC "-//W3C//DTD SVG 1.1//EN" "http://www.w3.org/Graphics/SVG/1.1/DTD/svg11.dtd">
<svg version="1.1" id="Layer_1" xmlns="http://www.w3.org/2000/svg" xmlns:xlink="http://www.w3.org/1999/xlink" x="0px" y="0px"
	 width="24px" height="24px" viewBox="0 0 24 24" enable-background="new 0 0 24 24" xml:space="preserve">
<g id="Spark_1_">
	<path fill="#FFD052" d="M11.998,8.077c0.561,0,1.025-0.292,1.09-0.671l0.556-6.276C13.644,0.507,12.917,0,12,0
		c-0.912,0-1.639,0.507-1.639,1.129l0.554,6.276C10.978,7.785,11.441,8.077,11.998,8.077L11.998,8.077"/>
	<path fill="#FFD052" d="M8.604,10.041c0.28-0.485,0.26-1.033-0.038-1.277l-5.161-3.62c-0.536-0.311-1.343,0.063-1.8,0.854
		c-0.456,0.79-0.377,1.678,0.162,1.984l5.711,2.66c0.359,0.136,0.846-0.12,1.128-0.608L8.604,10.041"/>
	<path fill="#FFD052" d="M15.396,10.036c0.279,0.485,0.765,0.741,1.124,0.609l5.715-2.661c0.54-0.31,0.613-1.194,0.163-1.984
		c-0.457-0.794-1.264-1.165-1.802-0.852l-5.158,3.618c-0.298,0.241-0.32,0.789-0.035,1.277L15.396,10.036"/>
	<path fill="#FFD052" d="M11.998,15.922c0.561,0,1.025,0.295,1.09,0.67l0.553,6.277c0,0.623-0.727,1.131-1.643,1.131
		c-0.914,0-1.639-0.508-1.639-1.131l0.555-6.277C10.978,16.215,11.441,15.922,11.998,15.922L11.998,15.922"/>
	<path fill="#FFD052" d="M15.396,13.961c0.279-0.486,0.765-0.738,1.124-0.605l5.715,2.66c0.54,0.309,0.613,1.193,0.163,1.984
		c-0.457,0.791-1.264,1.166-1.802,0.854l-5.158-3.615C15.14,14.994,15.114,14.447,15.396,13.961L15.396,13.961"/>
	<path fill="#FFD052" d="M8.604,13.961c0.282,0.486,0.26,1.033-0.036,1.277l-5.161,3.615C2.869,19.162,2.064,18.791,1.606,18
		c-0.457-0.791-0.376-1.674,0.162-1.984l5.714-2.66c0.355-0.133,0.842,0.117,1.125,0.605H8.604"/>
</g>
</svg>
